<svg width="156" height="44" viewBox="0 0 156 44" fill="none" xmlns="http://www.w3.org/2000/svg">
<path d="M1.80001 41.05C1.26668 41.05 0.833346 40.8667 0.500012 40.5C0.166679 40.1333 1.23531e-05 39.4833 1.23531e-05 38.55C1.23531e-05 37.85 0.216679 36.7167 0.650013 35.15C1.11668 33.55 1.73335 31.6833 2.50001 29.55C3.30001 27.4167 4.18335 25.1667 5.15001 22.8C6.15001 20.4 7.18335 18.0167 8.25001 15.65C9.31668 13.2833 10.3667 11.1 11.4 9.1C12.4333 7.06667 13.3833 5.35 14.25 3.95C15.1167 2.55 15.85 1.63333 16.45 1.2C17.15 0.699999 17.8 0.45 18.4 0.45C18.7333 0.45 19.0667 0.483332 19.4 0.549998C19.7333 0.616664 20.0167 0.73333 20.25 0.899997C20.85 1.26666 21.3667 2.08333 21.8 3.35C22.2667 4.58333 22.6667 6.1 23 7.9C23.3333 9.66666 23.6 11.5667 23.8 13.6C24.0333 15.6 24.2333 17.5833 24.4 19.55C25.4 19.4167 26.2333 19.3167 26.9 19.25C27.5667 19.1833 28.05 19.15 28.35 19.15C29.4833 19.15 30.2 19.3 30.5 19.6C30.8 19.9 30.9667 20.25 31 20.65C31.0667 21.25 30.9 21.7833 30.5 22.25C30.1 22.7167 29.5333 23.0667 28.8 23.3C28.5667 23.3667 28.0667 23.4833 27.3 23.65C26.5667 23.7833 25.6833 23.95 24.65 24.15C24.6833 25.15 24.7 26.0833 24.7 26.95C24.7333 27.7833 24.75 28.5 24.75 29.1C24.75 32.1333 24.5667 34.4167 24.2 35.95C23.8333 37.45 23.3833 38.4667 22.85 39C22.3167 39.5333 21.8 39.8 21.3 39.8C20.7 39.8 20.2833 39.6333 20.05 39.3C19.8167 38.9333 19.7 38.4167 19.7 37.75V34.2C19.7 32.9667 19.6833 31.5667 19.65 30C19.65 28.4 19.6333 26.7167 19.6 24.95C17.6333 25.2833 15.6333 25.6 13.6 25.9C11.6 26.2 9.86668 26.4667 8.40001 26.7C7.66668 28.6 7.03335 30.3167 6.50001 31.85C5.96668 33.35 5.60001 34.5 5.40001 35.3C4.90001 36.9667 4.45001 38.2167 4.05001 39.05C3.65001 39.85 3.26668 40.3833 2.90001 40.65C2.56668 40.9167 2.20001 41.05 1.80001 41.05ZM10.1 22.25C11.8333 21.85 13.4833 21.4833 15.05 21.15C16.65 20.8167 18.1167 20.5333 19.45 20.3C19.35 17.3 19.1667 14.4333 18.9 11.7C18.6667 8.93333 18.3167 6.75 17.85 5.15C17.2167 6.25 16.4667 7.71667 15.6 9.55C14.7333 11.3833 13.8167 13.4167 12.85 15.65C11.9167 17.85 11 20.05 10.1 22.25ZM41.2262 40.25C40.5929 40.25 40.0262 40.0167 39.5262 39.55C39.0262 39.05 38.7762 38.2833 38.7762 37.25C38.7762 36.5167 38.8762 35.5 39.0762 34.2C39.2762 32.8667 39.5429 31.4167 39.8762 29.85C40.2095 28.2833 40.5595 26.7333 40.9262 25.2C41.3262 23.6333 41.7262 22.2333 42.1262 21C42.5262 19.7667 42.8762 18.85 43.1762 18.25C43.4429 17.7833 43.6929 17.4833 43.9262 17.35C44.1929 17.2167 44.4429 17.15 44.6762 17.15C45.1429 17.15 45.5429 17.3 45.8762 17.6C46.2429 17.9 46.4262 18.4833 46.4262 19.35C46.4262 19.85 46.3262 20.6833 46.1262 21.85C45.9595 22.9833 45.7262 24.3167 45.4262 25.85C45.1595 27.35 44.8595 28.9 44.5262 30.5C44.2262 32.0667 43.9262 33.5667 43.6262 35C43.3262 36.4333 43.0929 37.6333 42.9262 38.6C42.7929 39.1333 42.5595 39.55 42.2262 39.85C41.9262 40.1167 41.5929 40.25 41.2262 40.25ZM46.1262 12.6C45.3595 12.6 44.6262 12.3667 43.9262 11.9C43.2595 11.4333 42.9262 10.6833 42.9262 9.65C42.9262 8.78333 43.1262 8.08333 43.5262 7.55C43.9595 7.01667 44.4595 6.63333 45.0262 6.4C45.6262 6.13333 46.1429 6 46.5762 6C47.0095 6 47.4929 6.1 48.0262 6.3C48.5929 6.46667 49.0762 6.8 49.4762 7.3C49.8762 7.76666 50.0762 8.46666 50.0762 9.4C50.0762 10.0333 49.8595 10.6 49.4262 11.1C48.9929 11.5667 48.4595 11.9333 47.8262 12.2C47.2262 12.4667 46.6595 12.6 46.1262 12.6ZM78.8559 32.6C79.2225 32.6 79.5725 32.75 79.9059 33.05C80.2392 33.35 80.4059 33.8333 80.4059 34.5C80.4059 35.0333 80.0059 35.6667 79.2059 36.4C78.4059 37.1 77.3725 37.7833 76.1059 38.45C74.8725 39.1167 73.5392 39.6667 72.1059 40.1C70.6725 40.5667 69.3225 40.8 68.0559 40.8C66.2559 40.8 64.5559 40.3333 62.9559 39.4C61.3892 38.4667 60.1059 37.1167 59.1059 35.35C58.1059 33.55 57.6059 31.3667 57.6059 28.8C57.6059 26.5333 58.0225 24.2667 58.8559 22C59.6892 19.7333 60.7892 17.55 62.1559 15.45C63.5559 13.35 65.0892 11.4 66.7559 9.6C68.4559 7.8 70.1559 6.23333 71.8559 4.9C73.5559 3.56666 75.1392 2.53333 76.6059 1.8C78.1059 1.03333 79.3392 0.649997 80.3059 0.649997C80.9725 0.649997 81.5059 0.899998 81.9059 1.4C82.3392 1.86667 82.5559 2.38333 82.5559 2.95C82.5559 3.28333 82.4559 3.61667 82.2559 3.95C82.0892 4.28333 81.7892 4.55 81.3559 4.75C79.1892 5.81666 76.9892 7.18333 74.7559 8.85C72.5225 10.5167 70.4559 12.4167 68.5559 14.55C66.6559 16.65 65.1225 18.9333 63.9559 21.4C62.7892 23.8333 62.2059 26.4 62.2059 29.1C62.2059 31.4333 62.7559 33.2167 63.8559 34.45C64.9559 35.65 66.4559 36.25 68.3559 36.25C69.3559 36.25 70.3892 36.0667 71.4559 35.7C72.5559 35.3333 73.5892 34.9167 74.5559 34.45C75.5559 33.95 76.4225 33.5167 77.1559 33.15C77.9225 32.7833 78.4892 32.6 78.8559 32.6ZM92.8367 41.3C91.5701 41.3 90.5201 40.7167 89.6867 39.55C88.8867 38.35 88.4867 36.8 88.4867 34.9C88.4867 33.1333 88.9201 31.3833 89.7867 29.65C90.6867 27.9167 91.8701 26.25 93.3367 24.65C94.8034 23.05 96.4034 21.5833 98.1367 20.25C99.8701 18.8833 101.603 17.7 103.337 16.7C105.103 15.7 106.72 14.9167 108.187 14.35C109.653 13.7833 110.82 13.5 111.687 13.5C112.153 13.5 112.537 13.6 112.837 13.8C113.137 13.9667 113.287 14.2833 113.287 14.75C113.287 15.05 113.17 15.3333 112.937 15.6C112.97 15.6 113.003 15.6 113.037 15.6C113.77 15.6 114.137 16.0333 114.137 16.9C114.137 17.2 114.02 17.8167 113.787 18.75C113.553 19.65 113.287 20.7833 112.987 22.15C112.687 23.5167 112.42 25.0333 112.187 26.7C111.953 28.3333 111.837 30 111.837 31.7C111.837 33.1333 112.387 33.85 113.487 33.85C114.72 33.85 115.97 33.5667 117.237 33C118.503 32.4333 119.737 31.75 120.937 30.95C122.137 30.1167 123.237 29.3 124.237 28.5C125.237 27.6667 126.087 26.9667 126.787 26.4C127.487 25.8333 127.987 25.55 128.287 25.55C128.553 25.55 128.787 25.6333 128.987 25.8C129.187 25.9667 129.287 26.2333 129.287 26.6C129.287 26.9333 128.953 27.5333 128.287 28.4C127.62 29.2667 126.737 30.25 125.637 31.35C124.537 32.45 123.303 33.5167 121.937 34.55C120.57 35.5833 119.17 36.4333 117.737 37.1C116.303 37.7667 114.937 38.1 113.637 38.1C112.637 38.1 111.72 37.8 110.887 37.2C110.087 36.5667 109.437 35.5 108.937 34C108.47 32.5 108.237 30.4333 108.237 27.8V26.55C106.603 29.25 104.887 31.7167 103.087 33.95C101.32 36.1833 99.5534 37.9667 97.7867 39.3C96.0534 40.6333 94.4034 41.3 92.8367 41.3ZM110.737 17.1C110.57 17.1667 110.337 17.2667 110.037 17.4C108.503 18.1 106.903 18.9667 105.237 20C103.603 21.0333 102.003 22.1833 100.437 23.45C98.9034 24.7167 97.5201 26.0333 96.2867 27.4C95.0534 28.7667 94.0701 30.15 93.3367 31.55C92.6034 32.95 92.2367 34.3167 92.2367 35.65C92.2367 36.0833 92.3201 36.4167 92.4867 36.65C92.6867 36.8833 93.0201 37 93.4867 37C94.1534 37 95.0201 36.5833 96.0867 35.75C97.1534 34.8833 98.3201 33.75 99.5867 32.35C100.887 30.95 102.187 29.4 103.487 27.7C104.787 26 106.02 24.2833 107.187 22.55C108.387 20.8167 109.42 19.2167 110.287 17.75C110.42 17.5167 110.57 17.3 110.737 17.1ZM122.34 24C121.44 23.9333 121.024 23.35 121.09 22.25C121.124 21.9833 121.307 21.6667 121.64 21.3C121.974 20.9 122.357 20.6833 122.79 20.65C123.824 20.55 125.09 20.4 126.59 20.2C128.124 19.9667 129.807 19.7 131.64 19.4C131.974 17.7667 132.374 16.05 132.84 14.25C133.307 12.45 133.824 10.7 134.39 9C134.957 7.26666 135.557 5.7 136.19 4.3C136.824 2.9 137.49 1.8 138.19 0.999998C138.557 0.633333 138.89 0.383333 139.19 0.249999C139.49 0.0833327 139.757 -5.96046e-07 139.99 -5.96046e-07C140.457 -5.96046e-07 140.824 0.199999 141.09 0.599998C141.39 0.999998 141.54 1.45 141.54 1.95C141.54 2.21667 141.49 2.48333 141.39 2.75C140.724 4.61667 140.007 6.91667 139.24 9.65C138.474 12.3833 137.657 15.3667 136.79 18.6C139.857 18.1 142.924 17.5667 145.99 17C149.057 16.4333 151.69 15.9167 153.89 15.45C154.524 15.1833 155.007 15.2333 155.34 15.6C155.707 15.9667 155.89 16.3333 155.89 16.7C155.89 17.1667 155.757 17.5167 155.49 17.75C155.257 17.9833 155.007 18.1833 154.74 18.35L154.69 18.4C154.024 18.6667 153.024 18.9833 151.69 19.35C150.357 19.6833 148.824 20.05 147.09 20.45C145.357 20.8167 143.507 21.1833 141.54 21.55C139.607 21.9167 137.69 22.25 135.79 22.55C135.024 25.4833 134.24 28.5 133.44 31.6C132.674 34.6667 131.907 37.6833 131.14 40.65C130.807 41.85 130.424 42.6 129.99 42.9C129.59 43.2333 129.157 43.4 128.69 43.4C128.157 43.4 127.69 43.2 127.29 42.8C126.924 42.4 126.874 41.5833 127.14 40.35L130.79 23.3C128.79 23.6 127.024 23.8167 125.49 23.95C123.99 24.0833 122.94 24.1 122.34 24Z" fill="black"/>
</svg>
